# xmcd CD database file
#
# Track frame offsets:
#	150
#	9770
#	42730
#	53195
#	57930
#	67827
#	95752
#	111375
#	155487
#	168027
#	184915
#	194272
#	210087
#	222450
#	256787
#	268772
#	271040
#	285932
#	297042
#	302020
#	302752
#	325702
#	342942
#
# Disc length: 4770 seconds
#
# Revision: 0
# Processed by: cddbd v1.4PL0 Copyright (c) Steve Scherf et al.
# Submitted via: CDex 1.50
#
DISCID=4512a017
DTITLE=Jo Carol Pierce - Bad Girls Upset by the Truth
DYEAR=1996
DGENRE=Country
TTITLE0=You Bother Me
TTITLE1=Intro
TTITLE2=Secret Dan
TTITLE3=Intro
TTITLE4=Across the Great Divide
TTITLE5=Intro
TTITLE6=Scratch upon Her Windowpane
TTITLE7=Intro
TTITLE8=I Blame God
TTITLE9=Intro
TTITLE10=Does God Have Us by the Twat or What?
TTITLE11=Intro
TTITLE12=Loose Diamonds
TTITLE13=Daddy's Song
TTITLE14=Apocalyptic Horses
TTITLE15=Intro
TTITLE16=Vaginal Angel
TTITLE17=Intro
TTITLE18=Vaginal Angel (Reprise)
TTITLE19=Christmas Greeting
TTITLE20=He Was The Gift By Which I Knew You
TTITLE21=Blue Norther
TTITLE22=Borderline Tango
EXTD=YEAR: 1996
EXTT0=
EXTT1=
EXTT2=
EXTT3=
EXTT4=
EXTT5=
EXTT6=
EXTT7=
EXTT8=
EXTT9=
EXTT10=
EXTT11=
EXTT12=
EXTT13=
EXTT14=
EXTT15=
EXTT16=
EXTT17=
EXTT18=
EXTT19=
EXTT20=
EXTT21=
EXTT22=
PLAYORDER=
